<svg xmlns="http://www.w3.org/2000/svg" viewBox="0 0 960 378" width="960" height="378" role="img"><defs><pattern id="g" width="24" height="24" patternUnits="userSpaceOnUse"><path d="M24 0H0V24" fill="none" stroke="#1B3F66" stroke-width="1"/></pattern></defs><rect width="960" height="378" rx="14" fill="#0F2A47"/><rect width="960" height="378" rx="14" fill="url(#g)" opacity="0.55"/><text x="28" y="34" font-family="system-ui,-apple-system,'Segoe UI',Helvetica,Arial,sans-serif" font-size="14" fill="#7FA3C7" letter-spacing="0.4">stage 3  /  embedding   (real values from the trained model)</text><text x="60.0" y="76.0" font-family="system-ui,-apple-system,'Segoe UI',Helvetica,Arial,sans-serif" font-size="13" fill="#7FA3C7" text-anchor="start" font-weight="400" xml:space="preserve" >token</text><text x="190.0" y="76.0" font-family="system-ui,-apple-system,'Segoe UI',Helvetica,Arial,sans-serif" font-size="13" fill="#7FA3C7" text-anchor="start" font-weight="400" xml:space="preserve" >id</text><text x="440.0" y="76.0" font-family="system-ui,-apple-system,'Segoe UI',Helvetica,Arial,sans-serif" font-size="13" fill="#7FA3C7" text-anchor="start" font-weight="400" xml:space="preserve" >its vector: first 16 of 64 learned numbers (coral = negative, blue = positive)</text><g><rect x="60.0" y="93.0" width="23.0" height="27" rx="5" fill="#5CC8FF"/><text x="67.0" y="113.0" font-family="ui-monospace,'SF Mono',Menlo,Consolas,'DejaVu Sans Mono',monospace" font-size="15" fill="#0B1E33" text-anchor="start" font-weight="600" xml:space="preserve" >W</text></g><text x="190.0" y="112.0" font-family="ui-monospace,'SF Mono',Menlo,Consolas,'DejaVu Sans Mono',monospace" font-size="15" fill="#5CC8FF" text-anchor="start" font-weight="600" xml:space="preserve" >87</text><g opacity="0"><animate attributeName="opacity" dur="10s" repeatCount="indefinite" values="0;0;1;1;0;0" keyTimes="0;0.030;0.050;0.960;0.980;1"/><line x1="232.0" y1="107.0" x2="313.0" y2="107.0" stroke="#FFB238" stroke-width="2"/><polygon points="322.0,107.0 313.0,102.5 313.0,111.5" fill="#FFB238"/><text x="332.0" y="112.0" font-family="ui-monospace,'SF Mono',Menlo,Consolas,'DejaVu Sans Mono',monospace" font-size="13" fill="#FFB238" text-anchor="start" font-weight="400" xml:space="preserve" >row 87</text><line x1="400.0" y1="107.0" x2="421.0" y2="107.0" stroke="#FFB238" stroke-width="2"/><polygon points="430.0,107.0 421.0,102.5 421.0,111.5" fill="#FFB238"/></g><g opacity="0"><animate attributeName="opacity" dur="10s" repeatCount="indefinite" values="0;0;1;1;0;0" keyTimes="0;0.110;0.130;0.960;0.980;1"/><rect x="440" y="92" width="24" height="28" rx="3" fill="#1A4265"/><rect x="467" y="92" width="24" height="28" rx="3" fill="#275C83"/><rect x="494" y="92" width="24" height="28" rx="3" fill="#B05B5D"/><rect x="521" y="92" width="24" height="28" rx="3" fill="#1E496D"/><rect x="548" y="92" width="24" height="28" rx="3" fill="#1C466A"/><rect x="575" y="92" width="24" height="28" rx="3" fill="#194062"/><rect x="602" y="92" width="24" height="28" rx="3" fill="#3A83AF"/><rect x="629" y="92" width="24" height="28" rx="3" fill="#2A3A57"/><rect x="656" y="92" width="24" height="28" rx="3" fill="#2C668F"/><rect x="683" y="92" width="24" height="28" rx="3" fill="#50B1E5"/><rect x="710" y="92" width="24" height="28" rx="3" fill="#7B4E5A"/><rect x="737" y="92" width="24" height="28" rx="3" fill="#8B525B"/><rect x="764" y="92" width="24" height="28" rx="3" fill="#7E4F5A"/><rect x="791" y="92" width="24" height="28" rx="3" fill="#285E85"/><rect x="818" y="92" width="24" height="28" rx="3" fill="#194062"/><rect x="845" y="92" width="24" height="28" rx="3" fill="#774D5A"/></g><g><rect x="60.0" y="137.0" width="41.1" height="27" rx="5" fill="#6FE3B4"/><text x="67.0" y="157.0" font-family="ui-monospace,'SF Mono',Menlo,Consolas,'DejaVu Sans Mono',monospace" font-size="15" fill="#0B1E33" text-anchor="start" font-weight="600" xml:space="preserve" >hat</text></g><text x="190.0" y="156.0" font-family="ui-monospace,'SF Mono',Menlo,Consolas,'DejaVu Sans Mono',monospace" font-size="15" fill="#5CC8FF" text-anchor="start" font-weight="600" xml:space="preserve" >362</text><g opacity="0"><animate attributeName="opacity" dur="10s" repeatCount="indefinite" values="0;0;1;1;0;0" keyTimes="0;0.180;0.200;0.960;0.980;1"/><line x1="232.0" y1="151.0" x2="313.0" y2="151.0" stroke="#FFB238" stroke-width="2"/><polygon points="322.0,151.0 313.0,146.5 313.0,155.5" fill="#FFB238"/><text x="332.0" y="156.0" font-family="ui-monospace,'SF Mono',Menlo,Consolas,'DejaVu Sans Mono',monospace" font-size="13" fill="#FFB238" text-anchor="start" font-weight="400" xml:space="preserve" >row 362</text><line x1="400.0" y1="151.0" x2="421.0" y2="151.0" stroke="#FFB238" stroke-width="2"/><polygon points="430.0,151.0 421.0,146.5 421.0,155.5" fill="#FFB238"/></g><g opacity="0"><animate attributeName="opacity" dur="10s" repeatCount="indefinite" values="0;0;1;1;0;0" keyTimes="0;0.260;0.280;0.960;0.980;1"/><rect x="440" y="136" width="24" height="28" rx="3" fill="#173B5D"/><rect x="467" y="136" width="24" height="28" rx="3" fill="#4F4358"/><rect x="494" y="136" width="24" height="28" rx="3" fill="#DE665F"/><rect x="521" y="136" width="24" height="28" rx="3" fill="#3C88B5"/><rect x="548" y="136" width="24" height="28" rx="3" fill="#82505B"/><rect x="575" y="136" width="24" height="28" rx="3" fill="#494258"/><rect x="602" y="136" width="24" height="28" rx="3" fill="#343C57"/><rect x="629" y="136" width="24" height="28" rx="3" fill="#1E4B6F"/><rect x="656" y="136" width="24" height="28" rx="3" fill="#3477A2"/><rect x="683" y="136" width="24" height="28" rx="3" fill="#684959"/><rect x="710" y="136" width="24" height="28" rx="3" fill="#4294C3"/><rect x="737" y="136" width="24" height="28" rx="3" fill="#275C83"/><rect x="764" y="136" width="24" height="28" rx="3" fill="#A5585C"/><rect x="791" y="136" width="24" height="28" rx="3" fill="#7F4F5B"/><rect x="818" y="136" width="24" height="28" rx="3" fill="#BA5E5D"/><rect x="845" y="136" width="24" height="28" rx="3" fill="#90535B"/></g><g><rect x="60.0" y="181.0" width="41.1" height="27" rx="5" fill="#C9A7FF"/><text x="67.0" y="201.0" font-family="ui-monospace,'SF Mono',Menlo,Consolas,'DejaVu Sans Mono',monospace" font-size="15" fill="#0B1E33" text-anchor="start" font-weight="600" xml:space="preserve" >·is</text></g><text x="190.0" y="200.0" font-family="ui-monospace,'SF Mono',Menlo,Consolas,'DejaVu Sans Mono',monospace" font-size="15" fill="#5CC8FF" text-anchor="start" font-weight="600" xml:space="preserve" >262</text><g opacity="0"><animate attributeName="opacity" dur="10s" repeatCount="indefinite" values="0;0;1;1;0;0" keyTimes="0;0.330;0.350;0.960;0.980;1"/><line x1="232.0" y1="195.0" x2="313.0" y2="195.0" stroke="#FFB238" stroke-width="2"/><polygon points="322.0,195.0 313.0,190.5 313.0,199.5" fill="#FFB238"/><text x="332.0" y="200.0" font-family="ui-monospace,'SF Mono',Menlo,Consolas,'DejaVu Sans Mono',monospace" font-size="13" fill="#FFB238" text-anchor="start" font-weight="400" xml:space="preserve" >row 262</text><line x1="400.0" y1="195.0" x2="421.0" y2="195.0" stroke="#FFB238" stroke-width="2"/><polygon points="430.0,195.0 421.0,190.5 421.0,199.5" fill="#FFB238"/></g><g opacity="0"><animate attributeName="opacity" dur="10s" repeatCount="indefinite" values="0;0;1;1;0;0" keyTimes="0;0.410;0.430;0.960;0.980;1"/><rect x="440" y="180" width="24" height="28" rx="3" fill="#674959"/><rect x="467" y="180" width="24" height="28" rx="3" fill="#624859"/><rect x="494" y="180" width="24" height="28" rx="3" fill="#4F4358"/><rect x="521" y="180" width="24" height="28" rx="3" fill="#479DCE"/><rect x="548" y="180" width="24" height="28" rx="3" fill="#2C678F"/><rect x="575" y="180" width="24" height="28" rx="3" fill="#6C4A5A"/><rect x="602" y="180" width="24" height="28" rx="3" fill="#644859"/><rect x="629" y="180" width="24" height="28" rx="3" fill="#3F8DBC"/><rect x="656" y="180" width="24" height="28" rx="3" fill="#4BA6D8"/><rect x="683" y="180" width="24" height="28" rx="3" fill="#373D57"/><rect x="710" y="180" width="24" height="28" rx="3" fill="#293A56"/><rect x="737" y="180" width="24" height="28" rx="3" fill="#5CC8FF"/><rect x="764" y="180" width="24" height="28" rx="3" fill="#C05F5E"/><rect x="791" y="180" width="24" height="28" rx="3" fill="#9A565C"/><rect x="818" y="180" width="24" height="28" rx="3" fill="#143658"/><rect x="845" y="180" width="24" height="28" rx="3" fill="#804F5B"/></g><g><rect x="60.0" y="225.0" width="50.1" height="27" rx="5" fill="#FF6F61"/><text x="67.0" y="245.0" font-family="ui-monospace,'SF Mono',Menlo,Consolas,'DejaVu Sans Mono',monospace" font-size="15" fill="#0B1E33" text-anchor="start" font-weight="600" xml:space="preserve" >·Los</text></g><text x="190.0" y="244.0" font-family="ui-monospace,'SF Mono',Menlo,Consolas,'DejaVu Sans Mono',monospace" font-size="15" fill="#5CC8FF" text-anchor="start" font-weight="600" xml:space="preserve" >598</text><g opacity="0"><animate attributeName="opacity" dur="10s" repeatCount="indefinite" values="0;0;1;1;0;0" keyTimes="0;0.480;0.500;0.960;0.980;1"/><line x1="232.0" y1="239.0" x2="313.0" y2="239.0" stroke="#FFB238" stroke-width="2"/><polygon points="322.0,239.0 313.0,234.5 313.0,243.5" fill="#FFB238"/><text x="332.0" y="244.0" font-family="ui-monospace,'SF Mono',Menlo,Consolas,'DejaVu Sans Mono',monospace" font-size="13" fill="#FFB238" text-anchor="start" font-weight="400" xml:space="preserve" >row 598</text><line x1="400.0" y1="239.0" x2="421.0" y2="239.0" stroke="#FFB238" stroke-width="2"/><polygon points="430.0,239.0 421.0,234.5 421.0,243.5" fill="#FFB238"/></g><g opacity="0"><animate attributeName="opacity" dur="10s" repeatCount="indefinite" values="0;0;1;1;0;0" keyTimes="0;0.560;0.580;0.960;0.980;1"/><rect x="440" y="224" width="24" height="28" rx="3" fill="#714C5A"/><rect x="467" y="224" width="24" height="28" rx="3" fill="#183E61"/><rect x="494" y="224" width="24" height="28" rx="3" fill="#B15B5D"/><rect x="521" y="224" width="24" height="28" rx="3" fill="#6A4A5A"/><rect x="548" y="224" width="24" height="28" rx="3" fill="#CD625E"/><rect x="575" y="224" width="24" height="28" rx="3" fill="#367AA6"/><rect x="602" y="224" width="24" height="28" rx="3" fill="#89525B"/><rect x="629" y="224" width="24" height="28" rx="3" fill="#2C668E"/><rect x="656" y="224" width="24" height="28" rx="3" fill="#296189"/><rect x="683" y="224" width="24" height="28" rx="3" fill="#253956"/><rect x="710" y="224" width="24" height="28" rx="3" fill="#194062"/><rect x="737" y="224" width="24" height="28" rx="3" fill="#1F4B70"/><rect x="764" y="224" width="24" height="28" rx="3" fill="#5F4759"/><rect x="791" y="224" width="24" height="28" rx="3" fill="#2C668E"/><rect x="818" y="224" width="24" height="28" rx="3" fill="#9A565C"/><rect x="845" y="224" width="24" height="28" rx="3" fill="#225277"/></g><g><rect x="60.0" y="269.0" width="86.2" height="27" rx="5" fill="#9AD0FF"/><text x="67.0" y="289.0" font-family="ui-monospace,'SF Mono',Menlo,Consolas,'DejaVu Sans Mono',monospace" font-size="15" fill="#0B1E33" text-anchor="start" font-weight="600" xml:space="preserve" >·Angeles</text></g><text x="190.0" y="288.0" font-family="ui-monospace,'SF Mono',Menlo,Consolas,'DejaVu Sans Mono',monospace" font-size="15" fill="#5CC8FF" text-anchor="start" font-weight="600" xml:space="preserve" >559</text><g opacity="0"><animate attributeName="opacity" dur="10s" repeatCount="indefinite" values="0;0;1;1;0;0" keyTimes="0;0.630;0.650;0.960;0.980;1"/><line x1="232.0" y1="283.0" x2="313.0" y2="283.0" stroke="#FFB238" stroke-width="2"/><polygon points="322.0,283.0 313.0,278.5 313.0,287.5" fill="#FFB238"/><text x="332.0" y="288.0" font-family="ui-monospace,'SF Mono',Menlo,Consolas,'DejaVu Sans Mono',monospace" font-size="13" fill="#FFB238" text-anchor="start" font-weight="400" xml:space="preserve" >row 559</text><line x1="400.0" y1="283.0" x2="421.0" y2="283.0" stroke="#FFB238" stroke-width="2"/><polygon points="430.0,283.0 421.0,278.5 421.0,287.5" fill="#FFB238"/></g><g opacity="0"><animate attributeName="opacity" dur="10s" repeatCount="indefinite" values="0;0;1;1;0;0" keyTimes="0;0.710;0.730;0.960;0.980;1"/><rect x="440" y="268" width="24" height="28" rx="3" fill="#674959"/><rect x="467" y="268" width="24" height="28" rx="3" fill="#AC5A5D"/><rect x="494" y="268" width="24" height="28" rx="3" fill="#296188"/><rect x="521" y="268" width="24" height="28" rx="3" fill="#744C5A"/><rect x="548" y="268" width="24" height="28" rx="3" fill="#474158"/><rect x="575" y="268" width="24" height="28" rx="3" fill="#23557B"/><rect x="602" y="268" width="24" height="28" rx="3" fill="#88515B"/><rect x="629" y="268" width="24" height="28" rx="3" fill="#33749E"/><rect x="656" y="268" width="24" height="28" rx="3" fill="#313C57"/><rect x="683" y="268" width="24" height="28" rx="3" fill="#306F99"/><rect x="710" y="268" width="24" height="28" rx="3" fill="#564559"/><rect x="737" y="268" width="24" height="28" rx="3" fill="#2D6992"/><rect x="764" y="268" width="24" height="28" rx="3" fill="#4D4358"/><rect x="791" y="268" width="24" height="28" rx="3" fill="#A8595C"/><rect x="818" y="268" width="24" height="28" rx="3" fill="#A5585C"/><rect x="845" y="268" width="24" height="28" rx="3" fill="#DE665F"/></g><text x="60.0" y="352.0" font-family="ui-monospace,'SF Mono',Menlo,Consolas,'DejaVu Sans Mono',monospace" font-size="14" fill="#DCE9F5" text-anchor="start" font-weight="400" xml:space="preserve" >vector = token_table[id] + position_table[where it sits in the sentence]</text></svg>