<svg xmlns="http://www.w3.org/2000/svg" viewBox="0 0 960 340" width="960" height="340" role="img"><defs><pattern id="g" width="24" height="24" patternUnits="userSpaceOnUse"><path d="M24 0H0V24" fill="none" stroke="#1B3F66" stroke-width="1"/></pattern></defs><rect width="960" height="340" rx="14" fill="#0F2A47"/><rect width="960" height="340" rx="14" fill="url(#g)" opacity="0.55"/><text x="28" y="34" font-family="system-ui,-apple-system,'Segoe UI',Helvetica,Arial,sans-serif" font-size="14" fill="#7FA3C7" letter-spacing="0.4">stage 6  /  pretraining   (the real loss curve of this repository&#x27;s model)</text><path d="M70 78V288H450" fill="none" stroke="#7FA3C7" stroke-width="1.2"/><line x1="70" y1="288.0" x2="450" y2="288.0" stroke="#1B3F66"/><text x="62.0" y="292.0" font-family="ui-monospace,'SF Mono',Menlo,Consolas,'DejaVu Sans Mono',monospace" font-size="11.5" fill="#7FA3C7" text-anchor="end" font-weight="400" xml:space="preserve" >0</text><line x1="70" y1="223.3846153846154" x2="450" y2="223.3846153846154" stroke="#1B3F66"/><text x="62.0" y="227.4" font-family="ui-monospace,'SF Mono',Menlo,Consolas,'DejaVu Sans Mono',monospace" font-size="11.5" fill="#7FA3C7" text-anchor="end" font-weight="400" xml:space="preserve" >2</text><line x1="70" y1="158.76923076923077" x2="450" y2="158.76923076923077" stroke="#1B3F66"/><text x="62.0" y="162.8" font-family="ui-monospace,'SF Mono',Menlo,Consolas,'DejaVu Sans Mono',monospace" font-size="11.5" fill="#7FA3C7" text-anchor="end" font-weight="400" xml:space="preserve" >4</text><line x1="70" y1="94.15384615384616" x2="450" y2="94.15384615384616" stroke="#1B3F66"/><text x="62.0" y="98.2" font-family="ui-monospace,'SF Mono',Menlo,Consolas,'DejaVu Sans Mono',monospace" font-size="11.5" fill="#7FA3C7" text-anchor="end" font-weight="400" xml:space="preserve" >6</text><text x="70.0" y="68.0" font-family="system-ui,-apple-system,'Segoe UI',Helvetica,Arial,sans-serif" font-size="12.5" fill="#7FA3C7" text-anchor="start" font-weight="400" xml:space="preserve" >loss  (how surprised the model is by the real next token)</text><text x="450.0" y="310.0" font-family="system-ui,-apple-system,'Segoe UI',Helvetica,Arial,sans-serif" font-size="12.5" fill="#7FA3C7" text-anchor="end" font-weight="400" xml:space="preserve" >training step</text><line x1="70" y1="88.68630800556983" x2="450" y2="88.68630800556983" stroke="#FF6F61" stroke-dasharray="4 4"/><text x="446.0" y="104.7" font-family="system-ui,-apple-system,'Segoe UI',Helvetica,Arial,sans-serif" font-size="11.5" fill="#FF6F61" text-anchor="end" font-weight="400" xml:space="preserve" >pure guessing = 6.64</text><polyline points="70.0,87.9 72.5,99.1 75.1,117.5 77.6,139.2 80.1,166.6 82.7,191.0 85.2,205.6 87.7,214.9 90.3,226.3 92.8,234.8 95.4,234.1 97.9,246.1 100.4,246.2 103.0,242.7 105.5,252.7 108.0,252.5 110.6,254.4 113.3,255.3 115.9,258.1 118.4,258.0 121.0,261.1 123.5,260.3 126.0,262.1 128.6,261.0 131.1,262.9 133.6,264.9 136.2,265.5 138.7,264.8 141.2,265.1 143.8,266.0 146.3,268.1 148.8,268.7 151.4,269.4 153.9,268.4 156.7,271.1 159.2,269.6 161.8,269.7 164.3,272.0 166.8,270.8 169.4,274.4 171.9,270.4 174.4,274.0 177.0,273.4 179.5,274.6 182.0,275.4 184.6,274.1 187.1,274.8 189.7,276.2 192.2,276.4 194.7,274.8 197.5,275.2 200.0,276.7 202.6,276.3 205.1,277.4 207.7,277.0 210.2,275.7 212.7,276.1 215.3,276.8 217.8,276.4 220.3,277.4 222.9,275.6 225.4,277.4 227.9,277.6 230.5,277.5 233.0,278.3 235.5,276.2 238.1,276.4 240.9,277.4 243.4,277.1 245.9,277.7 248.5,277.8 251.0,277.5 253.5,277.5 256.1,276.7 258.6,277.4 261.1,277.0 263.7,278.2 266.2,276.6 268.7,278.2 271.3,275.8 273.8,276.5 276.4,277.9 278.9,278.6 281.7,276.4 284.2,275.9 286.7,276.0 289.3,277.1 291.8,278.0 294.3,278.2 296.9,279.5 299.4,277.9 302.0,277.9 304.5,278.4 307.0,277.8 309.6,280.1 312.1,279.8 314.6,278.9 317.2,279.1 319.7,278.2 322.2,278.7 325.0,278.4 327.6,279.5 330.1,278.2 332.6,278.2 335.2,279.3 337.7,277.1 340.2,277.7 342.8,278.6 345.3,277.1 347.8,279.9 350.4,279.9 352.9,279.5 355.4,278.6 358.0,278.9 360.5,277.8 363.0,278.1 365.8,277.5 368.4,279.7 370.9,280.0 373.4,279.0 376.0,277.7 378.5,279.7 381.0,279.8 383.6,279.3 386.1,279.7 388.7,280.5 391.2,279.1 393.7,279.1 396.3,279.8 398.8,279.7 401.3,279.6 403.9,279.7 406.4,279.1 409.2,280.6 411.7,279.8 414.3,280.0 416.8,279.4 419.3,277.8 421.9,280.1 424.4,280.8 426.9,281.1 429.5,280.7 432.0,280.1 434.5,280.0 437.1,280.5 439.6,280.4 442.1,280.5 444.7,279.1 447.2,280.1 450.0,279.8" fill="none" stroke="#FFB238" stroke-width="2.4" stroke-linejoin="round" pathLength="100" stroke-dasharray="100" stroke-dashoffset="100"><animate attributeName="stroke-dashoffset" dur="8s" repeatCount="indefinite" values="100;0;0" keyTimes="0;0.7;1"/></polyline><text x="490.0" y="88.0" font-family="system-ui,-apple-system,'Segoe UI',Helvetica,Arial,sans-serif" font-size="13" fill="#7FA3C7" text-anchor="start" font-weight="400" xml:space="preserve" >what the model writes after ...</text><g opacity="0"><animate attributeName="opacity" dur="8s" repeatCount="indefinite" values="0;0;1;1;0;0" keyTimes="0;0.000;0.020;0.970;0.990;1"/><text x="490.0" y="120.0" font-family="ui-monospace,'SF Mono',Menlo,Consolas,'DejaVu Sans Mono',monospace" font-size="12.5" fill="#FFB238" text-anchor="start" font-weight="600" xml:space="preserve" >step 0</text><text x="490.0" y="139.0" font-family="ui-monospace,'SF Mono',Menlo,Consolas,'DejaVu Sans Mono',monospace" font-size="12.5" fill="#7FA3C7" text-anchor="start" font-weight="400" xml:space="preserve" >…Los Angeles is</text><text x="602.9" y="139.0" font-family="ui-monospace,'SF Mono',Menlo,Consolas,'DejaVu Sans Mono',monospace" font-size="12.5" fill="#DCE9F5" text-anchor="start" font-weight="400" xml:space="preserve" >onecaus)innerthe dryuen d w□ond airouecau</text></g><g opacity="0"><animate attributeName="opacity" dur="8s" repeatCount="indefinite" values="0;0;1;1;0;0" keyTimes="0;0.081;0.101;0.970;0.990;1"/><text x="490.0" y="166.0" font-family="ui-monospace,'SF Mono',Menlo,Consolas,'DejaVu Sans Mono',monospace" font-size="12.5" fill="#FFB238" text-anchor="start" font-weight="600" xml:space="preserve" >step 20</text><text x="490.0" y="185.0" font-family="ui-monospace,'SF Mono',Menlo,Consolas,'DejaVu Sans Mono',monospace" font-size="12.5" fill="#7FA3C7" text-anchor="start" font-weight="400" xml:space="preserve" >…Los Angeles is</text><text x="602.9" y="185.0" font-family="ui-monospace,'SF Mono',Menlo,Consolas,'DejaVu Sans Mono',monospace" font-size="12.5" fill="#DCE9F5" text-anchor="start" font-weight="400" xml:space="preserve" > mild What: days in is cool the of↵Weathe</text></g><g opacity="0"><animate attributeName="opacity" dur="8s" repeatCount="indefinite" values="0;0;1;1;0;0" keyTimes="0;0.181;0.201;0.970;0.990;1"/><text x="490.0" y="212.0" font-family="ui-monospace,'SF Mono',Menlo,Consolas,'DejaVu Sans Mono',monospace" font-size="12.5" fill="#FFB238" text-anchor="start" font-weight="600" xml:space="preserve" >step 100</text><text x="490.0" y="231.0" font-family="ui-monospace,'SF Mono',Menlo,Consolas,'DejaVu Sans Mono',monospace" font-size="12.5" fill="#7FA3C7" text-anchor="start" font-weight="400" xml:space="preserve" >…Los Angeles is</text><text x="602.9" y="231.0" font-family="ui-monospace,'SF Mono',Menlo,Consolas,'DejaVu Sans Mono',monospace" font-size="12.5" fill="#DCE9F5" text-anchor="start" font-weight="400" xml:space="preserve" > usually cool and breezy. In summer it is</text></g><g opacity="0"><animate attributeName="opacity" dur="8s" repeatCount="indefinite" values="0;0;1;1;0;0" keyTimes="0;0.313;0.333;0.970;0.990;1"/><text x="490.0" y="258.0" font-family="ui-monospace,'SF Mono',Menlo,Consolas,'DejaVu Sans Mono',monospace" font-size="12.5" fill="#FFB238" text-anchor="start" font-weight="600" xml:space="preserve" >step 300</text><text x="490.0" y="277.0" font-family="ui-monospace,'SF Mono',Menlo,Consolas,'DejaVu Sans Mono',monospace" font-size="12.5" fill="#7FA3C7" text-anchor="start" font-weight="400" xml:space="preserve" >…Los Angeles is</text><text x="602.9" y="277.0" font-family="ui-monospace,'SF Mono',Menlo,Consolas,'DejaVu Sans Mono',monospace" font-size="12.5" fill="#DCE9F5" text-anchor="start" font-weight="400" xml:space="preserve" > usually cool and changeable. A normal da</text></g><g opacity="0"><animate attributeName="opacity" dur="8s" repeatCount="indefinite" values="0;0;1;1;0;0" keyTimes="0;0.700;0.720;0.970;0.990;1"/><text x="490.0" y="304.0" font-family="ui-monospace,'SF Mono',Menlo,Consolas,'DejaVu Sans Mono',monospace" font-size="12.5" fill="#FFB238" text-anchor="start" font-weight="600" xml:space="preserve" >step 1500</text><text x="490.0" y="323.0" font-family="ui-monospace,'SF Mono',Menlo,Consolas,'DejaVu Sans Mono',monospace" font-size="12.5" fill="#7FA3C7" text-anchor="start" font-weight="400" xml:space="preserve" >…Los Angeles is</text><text x="602.9" y="323.0" font-family="ui-monospace,'SF Mono',Menlo,Consolas,'DejaVu Sans Mono',monospace" font-size="12.5" fill="#DCE9F5" text-anchor="start" font-weight="400" xml:space="preserve" > usually sunny and warm. A normal day in </text></g></svg>